<?xml version="1.0" encoding="utf-8"?><!DOCTYPE svg PUBLIC "-//W3C//DTD SVG 1.1//EN" "http://www.w3.org/Graphics/SVG/1.1/DTD/svg11.dtd"><svg version="1.1" xmlns="http://www.w3.org/2000/svg" x="0px" y="0px" width="600px" height="660px" viewBox="0 0 600 660"><title>2010 FIFA World Cup logo</title><path fill="#FFF" d="M3.634,3.771v606.887c0,25.14,20.444,45.57,45.587,45.57h525.413V77.813c0-40.795-33.168-73.992-73.975-74.041H3.634L3.634,3.771z"/><path fill="#004B97" d="M130.704,592.554H12.988v18.113c0,20.002,16.217,36.201,36.215,36.201h516.069V238.542C523.843,440.595,345.009,592.554,130.704,592.554z"/><path fill="#3D9CD7" d="M565.263,116.507c-12.681,21.124-35.389,35.55-61.515,36.632c2.459,19.075,3.781,38.549,3.781,58.359c0,90.18-26.529,173.595-71.521,241.583c79.588-84.193,129.261-203.48,129.261-335.831C565.268,117.006,565.263,116.757,565.263,116.507L565.263,116.507z"/><path fill="#004B97" d="M524.931,130.292c-6.059-8.313-10.001-18.243-10.994-29.032c7.301-13.88,11.107-29.848,10.315-46.647c-0.538-11.527-3.296-22.388-7.681-32.337c24.16,6.938,41.86,29.175,41.86,55.575C558.433,101.089,544.698,121.068,524.931,130.292L524.931,130.292z M500.558,135.736c-5.313,0-10.426-0.788-15.298-2.123c9.734-6.767,18.112-15.376,24.553-25.309c1.745,8.804,5.379,16.87,10.328,23.951C514.014,134.454,507.449,135.736,500.558,135.736L500.558,135.736z M478.875,131.496c-21.229-8.583-36.194-29.354-36.194-53.646c0-6.833,1.262-13.394,3.437-19.491c12.772-1.648,26.123,2.609,35.626,12.722c8.457,9.02,12.807,21.699,10.755,34.854C490.912,116.146,485.983,125.097,478.875,131.496L478.875,131.496z M464.383,32.706c5.633,2.342,10.907,5.424,15.539,9.37c-3.406,5.17-4.793,11.635-3.521,18.012c-8.475-5.366-18.361-7.698-28.065-7.033C452.105,45.109,457.594,38.154,464.383,32.706z M509.672,60.897c-3.239,0.486-5.909,2.451-7.388,5.117c-3.252-9.411-8.558-17.692-15.325-24.411c3.419-3.282,8.063-5.297,13.171-5.297c10.52,0,19.045,8.544,19.045,19.067c0,2.727-0.556,5.305-1.598,7.643C515.441,61.313,512.605,60.442,509.672,60.897z M506.433,71c0-2.616,2.114-4.744,4.754-4.744c2.617,0,4.75,2.128,4.75,4.744c0,2.617-2.133,4.74-4.75,4.74C508.547,75.74,506.433,73.617,506.433,71z M505.339,79.369c3.429,2.416,7.944,2.461,11.391,0.231c-3.018,12.261-8.697,23.519-16.419,33.13C504.831,102.558,506.727,91.104,505.339,79.369L505.339,79.369z M483.896,65.385c-3.869-6.263-3.663-13.87-0.153-19.771c7.608,7.69,13.145,17.553,15.591,28.807C493.228,74.186,487.328,70.979,483.896,65.385z M493.101,78.515c2.354,0.71,4.763,1.047,7.116,1.047c1.111,8.771,0.21,17.438-2.43,25.505C498.883,95.871,497.194,86.643,493.101,78.515z M500.558,19.98c3.323,0,6.535,0.342,9.714,0.871c2.66,5.322,4.833,10.936,6.334,16.843c-4.32-4.03-10.115-6.489-16.477-6.489c-6.608,0-12.602,2.643-16.965,6.925c-4.229-3.581-8.935-6.522-13.941-8.896C478.258,23.403,489.004,19.98,500.558,19.98z M500.565,13.136c-35.735,0-64.711,28.959-64.711,64.702c0,35.742,28.976,64.719,64.711,64.719c35.74,0,64.727-28.977,64.727-64.719C565.291,42.095,536.306,13.136,500.565,13.136z"/><polygon fill="#FFF" points="325.527,606.861 332.512,606.861 335.804,626.546 335.878,626.546 339.323,606.861 347.997,606.861 351.596,626.546 351.65,626.546 354.996,606.861 361.646,606.861 355.934,632.484 347.135,632.484 343.511,612.794 343.442,612.794 340.053,632.484 331.208,632.484 "/><path fill="#FFF" d="M377.149,627.855c4.145,0,5.809-3.951,5.809-8.176c0-4.451-1.664-8.18-5.809-8.18c-4.171,0-5.813,3.729-5.813,8.18C371.336,623.904,372.978,627.855,377.149,627.855z M377.149,606.423c8.426,0,12.842,5.037,12.842,13.258c0,8.158-4.464,13.254-12.842,13.254c-8.379,0-12.877-5.096-12.877-13.254C364.272,611.46,368.697,606.423,377.149,606.423z"/><path fill="#FFF" d="M401.379,617.511h1.791c2.2,0,5.011-0.088,5.011-2.98c0-2.373-2.406-2.813-5.011-2.813h-1.791V617.511L401.379,617.511z M394.546,606.865h12.195c4.543,0,8.26,2.063,8.26,6.457c0,3.418-1.605,5.693-4.916,6.478v0.059c2.198,0.595,2.352,2.533,3.625,5.65l2.495,6.978h-7.127l-1.466-4.632c-1.393-4.399-2.269-5.502-4.808-5.502h-1.427v10.134h-6.833L394.546,606.865L394.546,606.865z"/><polygon fill="#FFF" points="420.14,606.861 426.958,606.861 426.958,627.421 437.543,627.421 437.543,632.484 420.14,632.484 "/><path fill="#FFF" d="M448.294,627.421h2.646c5.106,0,7.974-2.636,7.974-7.74c0-5.098-2.963-7.756-7.974-7.756h-2.646V627.421z M441.476,606.859h9.322c8.92,0,15.176,2.775,15.176,12.717c0,9.582-6.435,12.912-15.176,12.912h-9.322V606.859z"/><path fill="#FFF" d="M504.476,631.896c-1.926,0.486-4.093,1.037-7.59,1.037c-6.823,0-14.736-3.449-14.736-13.141c0-8.92,6.239-13.367,14.692-13.367c2.608,0,5.145,0.586,7.616,1.313l-0.582,5.56c-2.188-1.221-4.312-1.803-6.663-1.803c-4.856,0-8,3.526-8,8.297c0,5.021,3.545,8.063,8.553,8.063c2.219,0,4.513-0.582,6.387-1.303L504.476,631.896L504.476,631.896z"/><path fill="#FFF" d="M530.627,622.751c0,7.024-4.556,10.186-11.23,10.186c-6.701,0-11.232-3.16-11.232-10.186v-15.89h6.82v14.76c0,3.38,0.905,6.234,4.412,6.234c3.492,0,4.391-2.854,4.391-6.234v-14.76h6.841L530.627,622.751L530.627,622.751z"/><path fill="#FFF" d="M542.406,618.691h1.776c2.343,0,4.206-0.85,4.206-3.531c0-2.608-1.863-3.446-4.206-3.446h-1.776V618.691L542.406,618.691z M535.587,606.859h8.141c7.832,0,11.481,2.646,11.481,8.404c0,5.191-3.772,8.26-10.159,8.26h-2.645v8.965h-6.818V606.859L535.587,606.859z"/><polygon fill="#FFF" points="372.185,532.429 372.185,592.445 391.151,592.445 391.151,570.768 404.29,570.768 409.459,557.628 391.151,557.628 391.151,545.441 413.404,545.441 418.306,532.429 "/><polygon fill="#FFF" points="424.443,532.429 424.406,592.445 443.154,592.445 443.154,532.429 "/><path fill="#FFF" d="M533.125,532.527h-19.47l-21.563,60.023h18.092l2.327-8.076h21.085l2.465,8.076h18.65L533.125,532.527z M515.853,572.958l7.223-24.976l7.475,24.976H515.853z"/><polygon fill="#FFF" points="456.47,532.429 456.47,592.445 475.436,592.445 475.436,570.768 488.585,570.768 493.745,557.628 475.436,557.628 475.436,545.441 497.698,545.441 502.578,532.429 "/><path fill="#D1D3D4" d="M193.656,458.831c4.025,3.864,4.025,11.266,4.025,11.266s-16.222,2.438-16.222,13.324c0,0.932,0.127,1.795,0.364,2.59c-1.83-1.75-3.061-3.986-3.061-6.807c0-10.898,16.238-13.337,16.238-13.337S195.003,462.298,193.656,458.831z M194.321,495.014c1.282,0.307,2.485,0.5,3.545,0.635c-0.607,1.791-0.923,3.013-0.883,3.58c-0.797,2.754-2.229,6.221-4.519,8.023c-11.7-1.041-20.629-6.461-24.201-14.129c4.474,5.393,12.104,9.067,21.527,9.914C192.084,501.199,193.516,497.686,194.321,495.014L194.321,495.014z M135.726,465.632c1.863,2.049,3.262,4.666,3.598,7.879c0.202,1.859-1.072,8.313-7.091,11.301c-1.086-1.188-2.264-2.451-3.603-3.811c6.798-2.771,8.206-9.769,8.001-11.724C136.495,467.966,136.176,466.738,135.726,465.632z M142.602,498.294c0.948,1.203,1.974,2.473,3.099,3.854c-0.788,1.117-9.297,5.064-11.254,5.289c0,0-4.504-5.289-13.153-19.08c6.887,10.662,10.471,14.838,10.471,14.838C133.527,503.025,140.701,499.732,142.602,498.294L142.602,498.294z M121.15,488.139c-0.396,0.705,1.526,19.697,1.526,19.697s-10.246,0.375-14.02-2.816l0.092-2.752c4.557,1.584,11.236,1.348,11.236,1.348s-1.913-18.991-1.523-19.704C119.407,485.415,120.31,486.82,121.15,488.139z M119.614,467.966l0.215,6.481c-0.793,0.478-1.63,0.937-2.5,1.4l-0.407-12.098c0,0,7.546-0.951,9.229,4.555c-0.119,0.225-0.25,0.434-0.372,0.639C123.031,467.55,119.614,467.966,119.614,467.966L119.614,467.966z M56.513,460.111l0.553,0.074c0,0,14.037,25.83,16.559,46.271c-4.688,0.639-12.326-0.152-15.074,0.045c0,0-0.346-1.813-0.906-4.254c3.458,0.061,9.394,0.502,13.289-0.015C69.028,486.771,60.535,468.24,56.513,460.111L56.513,460.111z M53.751,493.343l-10.907-1.57c0,0-2.557,7.75-6.225,14.75c0,0-9.148-0.592-11.682-1.27c0,0-0.921,0.157-1.053-1.81c-0.024-0.381,0.118-1.08,0.396-2.047c3.636,0.516,9.646,0.896,9.646,0.896c3.667-6.998,6.232-14.761,6.232-14.761l12.313,1.777C52.92,490.542,53.362,491.932,53.751,493.343L53.751,493.343z M49.72,473.345c-1.15,2.57-2.323,5.418-3.187,7.551c-2.137-0.459-4.01-0.871-4.01-0.871s2.749-7.151,5.136-12.276C48.56,469.681,49.203,471.514,49.72,473.345z M160.766,461.579l4.895,45.239c-1.868,1.156-11.792,1.332-16.926-3.715c-0.053-0.717-0.105-1.502-0.154-2.324c5.354,3.072,12.8,2.814,14.396,1.804l-4.529-41.814C160.057,461.163,160.766,461.579,160.766,461.579L160.766,461.579z M105.69,460.063c1.501,0.938-0.68,9.359-0.68,9.359s-9.634,0.012-14.795,2.521l-0.117,2.806c-1.737,0.358-2.901,0.7-2.901,0.7l0.329-7.729c5.154-2.504,14.802-2.525,14.802-2.525s0.679-2.621,1.017-5.106C104.117,460.072,104.902,460.063,105.69,460.063L105.69,460.063z M99.763,478.229c0.941,0.025,1.859,0.1,2.732,0.275l-0.089,7.729c-2.788-0.434-8.872,0.994-11.857,1.183c-0.607,0.739-1.27,15.836-0.161,20.287c0,0-8.946-0.609-15.04-4.74c-0.112-0.941-0.205-1.873-0.263-2.828c5.791,2.881,12.61,3.336,12.61,3.336c-1.1-4.451-0.438-19.539,0.18-20.287c2.978-0.18,9.056-1.619,11.848-1.188L99.763,478.229L99.763,478.229z M225.503,473.345c-1.143,2.57-2.325,5.418-3.188,7.551c-2.145-0.459-4.019-0.871-4.019-0.871s2.767-7.151,5.148-12.276C224.347,469.681,224.999,471.514,225.503,473.345z M232.291,460.111l0.562,0.074c0,0,14.036,25.83,16.558,46.271c-4.688,0.639-12.325-0.152-15.064,0.045c0,0-0.354-1.813-0.929-4.254c3.467,0.061,9.411,0.502,13.303-0.015C244.806,486.771,236.323,468.24,232.291,460.111z M229.534,493.343l-10.896-1.57c0,0-2.578,7.75-6.229,14.75c0,0-9.14-0.592-11.7-1.27c0,0-0.9,0.157-1.038-1.81c-0.034-0.381,0.118-1.08,0.407-2.047c3.615,0.516,9.63,0.896,9.63,0.896c3.669-6.998,6.238-14.761,6.238-14.761l12.312,1.777C228.707,490.542,229.14,491.932,229.534,493.343L229.534,493.343z M203.81,402.824l1.523-0.021c1.75,0.516,1.68,6.475-0.504,7.402l-9.411,1.188c0.867,11.639,1.786,37.924,1.786,37.924s-5.485,2.924-16.077,1.08l0.346-3.807c8.598,0.861,13.045-1.508,13.045-1.508s-0.925-26.277-1.79-37.927l9.424-1.182C203.088,405.572,203.639,404.253,203.81,402.824L203.81,402.824z M181.483,413.55c-1.947,0.283-4.578,0.713-7.082,1.276c0-1.829,0.253-3.479,0.631-4.897c3.702-0.664,6.894-1.014,6.894-1.014L181.483,413.55L181.483,413.55z M218.407,404.641c1.957,0.539,2.788,1.143,2.788,1.143l-0.328,10.33c-1.051-0.092-2.027-0.184-2.806-0.301L218.407,404.641z M242.066,405.128c1.021,0.162,1.886,0.434,2.438,0.836l3.194,43.092c-2.831,2.627-13.499,1.229-13.499,1.229s-0.218-0.293-0.419-4.006c3.291,0.25,9.229,0.396,11.244-1.453L242.066,405.128L242.066,405.128z M230.799,433.018c-2.797-0.521-6.153-0.727-9.253-0.119c0,0-0.521,8.719,1.038,17.4c-5.03,1.309-8.343,1.592-14.62,1.119c0-0.633-0.079-2.052-0.146-4.07c4.719,0.223,7.77-0.166,12.068-1.27c-1.546-8.685-1.033-17.421-1.033-17.421c4.157-0.805,8.768-0.131,11.905,0.734C230.773,430.701,230.786,431.906,230.799,433.018L230.799,433.018z M145.141,405.314l1.134,26.359c-1.15-0.854-2.088-1.877-2.631-2.938l-1.056-24.444C144.064,404.458,145.101,404.804,145.141,405.314z M167.218,403.939c0.933,0.404,1.794,0.943,2.481,1.699c0.136,1.965,3.384,37.547,3.527,39.504c0.288,4.215-2.019,5.414-8.403,6.092c0,0-0.708-2.192-1.532-4.371c5.512-0.7,7.525-2.01,7.239-5.94C170.422,439.232,167.989,412.499,167.218,403.939L167.218,403.939z M161.655,445.557c-2.635,2.803-6.294,5.17-9.669,5.416c-1.957,0.117-11.078-3.33-16.715-6.225c-0.066-0.438-0.149-1.523-0.251-3.039c5.522,2.565,12.589,5.141,14.277,5.024c3.722-0.262,7.787-3.104,10.436-6.278C160.42,442.054,161.182,444.171,161.655,445.557L161.655,445.557z M82.552,400.807c2.403,4.162,4.016,8.238,4.407,12.336c-7.304-2.596-14.478,0.607-17.48,2.559c-0.709-0.336-1.457-0.69-2.232-1.02c-0.766-0.324-2.604-0.955-1.895-2.029c0.695-1.067,9.689-7.014,18.911-3.737c-0.258-2.685-1.036-5.367-2.227-8.068L82.552,400.807z M83.306,428.658c3.317,4.166,4.377,8.13,3.82,9.9c-4.617,14.461-26.607,11.078-30.885,9.801c-2.118-0.631-3.418-2.645-4.224-5.012c0.454,0.355,0.968,0.617,1.526,0.787c4.29,1.266,26.269,4.666,30.898-9.803C84.802,433.181,84.483,431.109,83.306,428.658z M69.019,432.641c-5.88-5.023-18.971-9.869-18.913-13.576c0.009-0.246,0.025-0.49,0.052-0.758c5.76,4.219,18.605,9.279,18.953,14.256L69.019,432.641z M130.713,431.251c-1.384,9.895-9.223,18.807-17.224,19.377c-8.613,0.6-19.133-6.115-23.01-14.275c4.91,6.117,13.248,10.531,20.305,10.043c8.01-0.565,15.849-9.477,17.237-19.383c0.48-7.037-0.604-12.736-2.725-17.104C129.107,414.513,131.357,421.634,130.713,431.251L130.713,431.251z M112.226,414.04c-4.431-0.779-10.844,7.071-11.01,7.975c-0.235,1.334,0.048,3.113,0.778,4.906c-2.616-2.797-3.896-6.677-3.475-9.125c0.171-0.916,6.578-8.765,11.021-7.972c3.086,0.552,5.1,3.228,6.316,6.181C114.855,415.011,113.66,414.304,112.226,414.04L112.226,414.04z M245.979,528.014c2.28,2.773,3.785,5.943,4.018,9.139c1.034,14.738-7.772,24.24-20.41,25.138c-6.408,0.438-12.5-2.861-15.792-9.841c3.424,4.068,8.172,5.945,13.097,5.613c12.654-0.897,21.435-10.389,20.415-25.129C247.196,531.261,246.719,529.619,245.979,528.014L245.979,528.014z M235.745,533.04c-1.291-1.05-2.994-1.857-5.087-2.273c-3.554-0.686-7.437,0.701-8.539,6.387c-0.14,0.714,0.03,1.673,0.447,2.709c-2.095-2.293-3.458-5.266-3.141-6.928c1.108-5.694,4.981-7.092,8.535-6.395C232.462,527.413,235.172,530.197,235.745,533.04L235.745,533.04z M107.203,561.477c0,0-0.258-1.59-0.279-3.699c9.394,1.703,28.958,1.992,34.754-2.592c-0.401-0.945-1.265-2.787-2.101-4.543c0.393-0.066,0.616-0.092,0.616-0.092s3.257,6.705,4.171,8.877C138.001,564.439,115.11,563.591,107.203,561.477L107.203,561.477z M126.16,528.96c-3.615,0.86-7.344,2.223-10.027,3.608c0,0-0.959-2.477-1.736-4.709c4.162-1.965,10.168-3.729,14.731-4.073C130.364,523.697,129.824,526.572,126.16,528.96L126.16,528.96z M141.091,520.072c2.558,2.431,3.624,6.295,3.639,9.509c-0.289,0.983-0.504,1.979-0.641,2.987c-0.024,0.392-0.052,0.785-0.064,1.174c-2.665,7.638-10.793,8.681-18.223,13.447c-2.337,0-4.876-0.104-7.454-0.397c8.729-8.896,20.834-7.875,23.4-18.713C142.259,525.931,142.115,522.845,141.091,520.072L141.091,520.072z M171.157,533.04c-1.283-1.05-2.999-1.857-5.082-2.273c-3.56-0.686-7.432,0.701-8.54,6.387c-0.148,0.714,0.026,1.673,0.438,2.709c-2.074-2.293-3.452-5.266-3.135-6.928c1.112-5.694,4.974-7.092,8.54-6.395C167.874,527.413,170.593,530.197,171.157,533.04L171.157,533.04z M181.391,528.014c2.281,2.773,3.796,5.943,4.019,9.139c1.025,14.738-7.771,24.24-20.405,25.138c-6.408,0.438-12.51-2.861-15.806-9.841c3.439,4.068,8.181,5.945,13.102,5.613c12.652-0.897,21.447-10.389,20.418-25.129C182.599,531.261,182.134,529.619,181.391,528.014L181.391,528.014z M202.349,516.677c0.753-0.015,1.554-0.015,2.401,0.026c0,0,2.658,36.377,1.927,46.658c0,0-11.087,0.685-16.37-4.053l0.146-2.385c5.638,2.694,13.542,2.209,13.542,2.209C204.567,551.007,203.023,526.552,202.349,516.677L202.349,516.677z M189.406,524.939l-0.302,5.271c-0.753-1.488-1.314-3.078-1.717-4.396C188.071,525.578,188.771,525.277,189.406,524.939z"/><linearGradient id="SVGID_1_" gradientUnits="userSpaceOnUse" x1="30.4817" y1="-47.5098" x2="27.7336" y2="-51.2919" gradientTransform="matrix(12.4074 0 0 12.4074 -170.9265 1034.6906)"><stop offset="0" stop-color="#000"/><stop offset="1" stop-color="#434345"/></linearGradient><path fill="url(#SVGID_1_)" d="M174.707,400.193c0,0-2.99,4.187-2.99,10.388c4.891-1.084,10.204-1.673,10.204-1.673l0,0l-3.484,37.255c10.585,1.854,16.076-1.082,16.076-1.082l0,0c0,0-0.914-26.279-1.79-37.922l0,0l9.43-1.188c2.184-0.924,2.23-6.881,0.503-7.389C180.243,398.802,174.707,400.193,174.707,400.193L174.707,400.193L174.707,400.193z"/><linearGradient id="SVGID_2_" gradientUnits="userSpaceOnUse" x1="23.1565" y1="-47.2852" x2="21.7031" y2="-51.2786" gradientTransform="matrix(12.4074 0 0 12.4074 -170.9265 1034.6906)"><stop offset="0" stop-color="#000"/><stop offset="1" stop-color="#474749"/></linearGradient><path fill="url(#SVGID_2_)" d="M108.325,399.477c-13.675,0.953-23.178,11.223-22.048,27.164l0,0c0.727,10.365,14.027,20.492,24.512,19.756l0,0c8.009-0.567,15.844-9.481,17.232-19.381l0,0c1.241-18.283-8.06-27.588-18.468-27.588C109.148,399.436,108.736,399.445,108.325,399.477z M107.79,430.212c-6.372-1.125-9.936-8.554-9.271-12.412l0,0c0.166-0.914,6.573-8.764,11.021-7.98l0,0c6.373,1.14,8.207,11.39,7.703,14.271l0,0c-0.831,4.789-4.231,6.303-7.475,6.303l0,0C109.091,430.391,108.429,430.324,107.79,430.212L107.79,430.212z"/><linearGradient id="SVGID_3_" gradientUnits="userSpaceOnUse" x1="19.9377" y1="-47.168" x2="18.3625" y2="-51.496" gradientTransform="matrix(12.4074 0 0 12.4074 -170.9265 1034.6906)"><stop offset="0" stop-color="#000"/><stop offset="1" stop-color="#4E4F51"/></linearGradient><path fill="url(#SVGID_3_)" d="M50.849,407.591c-2.48,2.25-3.387,5.174-3.427,7.246l0,0c-0.097,4.721,21.241,11.291,21.693,17.727l0,0c-7.065,5.603-17.553-3.625-20.004-3.83l0,0c-0.968-0.088-0.989,0.385-0.989,0.385l0,0c0,0-0.648,13.224,5.428,15.019l0,0c4.28,1.27,26.264,4.67,30.89-9.801l0,0c1.032-3.256-3.437-13.854-17.188-19.648l0,0c-0.771-0.322-2.613-0.963-1.896-2.039l0,0c0.688-1.059,9.687-7.004,18.907-3.738l0,0c-0.393-4.088-2.003-8.172-4.405-12.321C67.846,397.542,59.004,400.031,50.849,407.591L50.849,407.591z"/><linearGradient id="SVGID_4_" gradientUnits="userSpaceOnUse" x1="26.6248" y1="-47.3335" x2="25.1922" y2="-51.269" gradientTransform="matrix(12.4074 0 0 12.4074 -170.9265 1034.6906)"><stop offset="0" stop-color="#000"/><stop offset="1" stop-color="#515254"/></linearGradient><path fill="url(#SVGID_4_)" d="M130.683,401.427v0.016c0.022,0.552,1.408,35.81,1.888,39.097l0,0c5.649,2.881,14.771,6.332,16.729,6.202l0,0c3.716-0.264,7.791-3.104,10.436-6.282l0,0c1.12,2.588,2.395,6.545,2.395,6.545c6.4-0.681,8.706-1.873,8.403-6.074l0,0c-0.131-1.971-3.387-37.561-3.527-39.514l0,0c-2.005-2.209-5.487-2.625-7.804-2.625l0,0c-1.37,0-2.324,0.145-2.324,0.145l0,0c0.175,3.344,1.422,27.615,1.563,29.574l0,0c0,0-3.034,5.031-5.874,5.301l0,0c-3.218,0.303-7.489-2.268-8.926-5.068l0,0l-1.183-27.641C142.343,399.52,133.075,399.556,130.683,401.427L130.683,401.427z"/><linearGradient id="SVGID_5_" gradientUnits="userSpaceOnUse" x1="32.4988" y1="-47.2432" x2="31.0569" y2="-51.2047" gradientTransform="matrix(12.4074 0 0 12.4074 -170.9265 1034.6906)"><stop offset="0" stop-color="#000"/><stop offset="0.9882" stop-color="#515254"/><stop offset="1" stop-color="#515254"/></linearGradient><path fill="url(#SVGID_5_)" d="M205.277,447.199c6.271,0.474,9.581,0.181,14.62-1.125l0,0c-1.556-8.676-1.043-17.411-1.043-17.411l0,0c4.157-0.806,8.768-0.142,11.905,0.733l0,0c0.147,15.84,0.748,16.656,0.748,16.656l0,0c0,0,10.667,1.396,13.513-1.223l0,0l-3.213-43.103c-2.255-1.613-10.163-1.176-10.163-1.176l0,0c-1.345,6.059-1.777,11.836-2.083,16.467l0,0c-2.985-0.652-8.483-0.754-11.504-1.203l0,0l0.446-14.258c0,0-2.744-1.973-9.889-1.973l0,0C203.306,412.809,205.22,443.535,205.277,447.199L205.277,447.199L205.277,447.199z"/><linearGradient id="SVGID_6_" gradientUnits="userSpaceOnUse" x1="30.1228" y1="-38.2686" x2="28.9364" y2="-42.1492" gradientTransform="matrix(12.4074 0 0 12.4074 -170.9265 1034.6906)"><stop offset="0" stop-color="#000"/><stop offset="1" stop-color="#3F3E40"/></linearGradient><path fill="url(#SVGID_6_)" d="M190.622,513.936c-2.146,0.789-6.684,4.635-6.684,4.635s0.748,4.041,2.516,7.484l0,0c0.985-0.195,2.022-0.625,2.956-1.115l0,0l-1.778,30.146c5.271,4.729,16.358,4.051,16.358,4.051l0,0c0.726-10.285-1.937-46.654-1.937-46.654l0,0c-0.582-0.024-1.146-0.039-1.688-0.039C194.08,512.443,190.622,513.936,190.622,513.936L190.622,513.936L190.622,513.936z"/><linearGradient id="SVGID_7_" gradientUnits="userSpaceOnUse" x1="32.825" y1="-38.2905" x2="31.4796" y2="-41.9871" gradientTransform="matrix(12.4074 0 0 12.4074 -170.9265 1034.6906)"><stop offset="0" stop-color="#000"/><stop offset="1" stop-color="#48484A"/></linearGradient><path fill="url(#SVGID_7_)" d="M224.623,514.636c-7.419,0.518-14.668,8.776-15.945,17.926l0,0c-1.209,17.586,8.133,26.195,18.213,25.504l0,0c12.654-0.896,21.438-10.391,20.415-25.137l0,0c-0.657-9.272-12.151-18.322-21.673-18.322l0,0C225.292,514.605,224.948,514.619,224.623,514.636L224.623,514.636z M227.626,543.048c-4.36-0.679-8.75-7.277-8.199-10.134l0,0c1.104-5.676,4.978-7.067,8.535-6.373l0,0c6.128,1.201,8.938,5.9,7.538,9.539l0,0c-1.765,4.562-3.235,7.072-6.596,7.072l0,0C228.51,543.152,228.081,543.122,227.626,543.048L227.626,543.048L227.626,543.048z"/><linearGradient id="SVGID_8_" gradientUnits="userSpaceOnUse" x1="24.3406" y1="-38.1445" x2="22.913" y2="-42.0667" gradientTransform="matrix(12.4074 0 0 12.4074 -170.9265 1034.6906)"><stop offset="0" stop-color="#000"/><stop offset="1" stop-color="#4D4D4F"/></linearGradient><path fill="url(#SVGID_8_)" d="M110.749,520.188c-0.32,0.283,2.683,8.154,2.683,8.154l0,0c4.169-2.154,10.761-4.187,15.702-4.549l0,0c1.53-0.119,0.327,4.271-6.054,6.711l0,0c-8.566,3.26-15.525,7.396-18.262,17.66l0,0c-1.111,4.098-0.304,9.078-0.304,9.078l0,0c7.906,2.133,30.799,2.959,37.158-2.045l0,0c-0.911-2.166-4.172-8.871-4.172-8.871l0,0c0,0-9.131,1.576-19.167,0.463l0,0c8.745-8.89,20.847-7.879,23.408-18.707l0,0c1.033-4.351-0.587-12.545-6.929-14.242l0,0c-1.606-0.434-3.39-0.652-5.263-0.652l0,0C123.387,513.188,116.191,515.529,110.749,520.188L110.749,520.188L110.749,520.188z"/><linearGradient id="SVGID_9_" gradientUnits="userSpaceOnUse" x1="27.6194" y1="-38.2915" x2="26.2736" y2="-41.9887" gradientTransform="matrix(12.4074 0 0 12.4074 -170.9265 1034.6906)"><stop offset="0" stop-color="#000"/><stop offset="1" stop-color="#4D4D4F"/></linearGradient><path fill="url(#SVGID_9_)" d="M160.035,514.636c-7.415,0.518-14.663,8.776-15.951,17.926l0,0c-1.188,17.586,8.143,26.195,18.223,25.504l0,0c12.649-0.896,21.436-10.391,20.414-25.137l0,0c-0.655-9.272-12.142-18.322-21.671-18.322l0,0C160.704,514.605,160.371,514.619,160.035,514.636L160.035,514.636z M163.047,543.048c-4.364-0.679-8.759-7.277-8.208-10.134l0,0c1.112-5.676,4.981-7.067,8.531-6.373l0,0c6.141,1.201,8.942,5.9,7.541,9.539l0,0c-1.754,4.562-3.229,7.072-6.592,7.072l0,0C163.926,543.152,163.497,543.122,163.047,543.048L163.047,543.048L163.047,543.048z"/><linearGradient id="SVGID_10_" gradientUnits="userSpaceOnUse" x1="24.6726" y1="-42.4805" x2="23.8857" y2="-46.9429" gradientTransform="matrix(12.4074 0 0 12.4074 -170.9265 1034.6906)"><stop offset="0" stop-color="#C4161C"/><stop offset="0.3804" stop-color="#C4161C"/><stop offset="0.6784" stop-color="#ED1C24"/><stop offset="0.8392" stop-color="#ED1C24"/><stop offset="1" stop-color="#ED1C24"/></linearGradient><path fill="url(#SVGID_10_)" d="M163.878,481.165c0,11.623,10.566,20.504,25.908,21.868l0,0c4.036-3.204,5.392-11.612,5.392-11.612l0,0c-5.725-0.688-16.413-3.859-16.413-12.222l0,0c0-10.895,16.238-13.331,16.238-13.331l0,0c0,0,0-7.406-4.049-11.271l0,0C172.633,454.597,163.878,467.96,163.878,481.165L163.878,481.165z M196.978,499.225c0.14,1.951,1.051,1.785,1.051,1.785l0,0c2.542,0.695,11.682,1.287,11.682,1.287l0,0c3.672-7.008,6.238-14.76,6.238-14.76l0,0l12.308,1.77c1.878,5.104,3.396,12.961,3.396,12.961l0,0c1.11-0.072,3.051,0.008,5.271,0.096l0,0c3.212,0.121,7.013,0.25,9.796-0.137l0,0c-2.518-20.432-16.56-46.26-16.56-46.26l0,0c0,0-7.317-1.021-13.192-1.021l0,0C210.826,465.464,196.737,495.691,196.978,499.225L196.978,499.225z M218.293,480.023c0,0,2.771-7.158,5.153-12.27l0,0c2.253,4.836,2.932,9.174,3.941,14.197l0,0C224.601,481.436,218.293,480.023,218.293,480.023L218.293,480.023z M21.196,499.225c0.13,1.951,1.046,1.785,1.046,1.785l0,0c2.547,0.695,11.689,1.287,11.689,1.287l0,0c3.663-7.008,6.229-14.76,6.229-14.76l0,0l12.313,1.77c1.874,5.104,3.394,12.961,3.394,12.961l0,0c1.116-0.072,3.06,0.008,5.279,0.096l0,0c3.207,0.121,7.012,0.25,9.786-0.137l0,0c-2.525-20.432-16.555-46.26-16.555-46.26l0,0c0,0-7.331-1.021-13.191-1.021l0,0C35.034,465.464,20.949,495.691,21.196,499.225L21.196,499.225z M42.511,480.023c0,0,2.767-7.158,5.148-12.27l0,0c2.253,4.836,2.928,9.174,3.938,14.197l0,0C48.818,481.436,42.511,480.023,42.511,480.023L42.511,480.023z M105.956,500.792c3.791,3.203,14.038,2.819,14.038,2.819l0,0c0,0-1.922-18.991-1.532-19.696l0,0c8.744,13.963,13.302,19.284,13.302,19.284l0,0c1.952-0.205,10.457-4.168,11.245-5.274l0,0c-5.521-6.779-8.276-10.728-14.379-16.926l0,0c6.802-2.771,8.211-9.767,7.996-11.714l0,0c-0.866-8.299-8.824-12.653-13.586-13.438l0,0l-15.617-0.688L105.956,500.792L105.956,500.792z M116.921,463.753c0,0,7.541-0.949,9.229,4.553l0,0c-2.049,3.674-5.082,5.582-8.82,7.547l0,0L116.921,463.753L116.921,463.753z M146.646,455.889c-1.313,11.494-1.327,32.699-0.604,42.994l0,0c5.145,5.033,15.066,4.859,16.936,3.699l0,0l-4.895-45.229c0,0-2.63-1.52-9.248-1.52l0,0C148.152,455.835,147.421,455.848,146.646,455.889L146.646,455.889z M77.445,458.807c0,0-6.975,21.666-4.793,39.922l0,0c6.102,4.133,15.044,4.746,15.044,4.746l0,0c-1.104-4.451-0.442-19.539,0.175-20.287l0,0c2.985-0.18,9.056-1.619,11.853-1.188l0,0l0.083-7.726c-5.212-1.012-12.613,1.172-12.613,1.172l0,0l0.338-7.731c5.156-2.504,14.803-2.519,14.803-2.519l0,0c0,0,2.166-8.426,0.665-9.362l0,0C89.893,455.835,77.445,458.807,77.445,458.807L77.445,458.807z"/><path fill="#D1D3D4" d="M77.207,306.584c-11.884-4.566-22.332-10.369-31.042-17.534c8.636,6.132,18.699,11.143,29.951,15.101C76.472,304.973,76.826,305.781,77.207,306.584L77.207,306.584z"/><path fill="#D1D3D4" d="M204.001,65.66c1.449,0.09,2.916,0.182,4.399,0.246c0.655,3.409,1.348,6.872,2.044,10.211c-97.631,14.699-172.36,91.632-170.031,162.989c0.782,23.873,10.877,41.591,26.59,54.525c-18.619-13.219-30.845-32.06-31.721-58.451c-2.341-71.36,72.393-148.3,170.045-162.997C204.881,70.044,204.431,67.858,204.001,65.66L204.001,65.66z"/><linearGradient id="SVGID_11_" gradientUnits="userSpaceOnUse" x1="44.4363" y1="-71.543" x2="40.7802" y2="-73.302" gradientTransform="matrix(12.4074 0 0 12.4074 -170.9265 1034.6906)"><stop offset="0" stop-color="#9D9FA2"/><stop offset="1" stop-color="#FFF"/></linearGradient><path fill="url(#SVGID_11_)" d="M374.262,167.688c0.958-0.984,2.938-3.028,5.028-5.169l0,0c-9.371-23.316-19.319-40.708-26-51.199l0,0c-5.277-2.662-10.708-5.575-16.185-8.749C337.155,102.631,357.67,127.03,374.262,167.688L374.262,167.688z"/><path fill="#D1D3D4" d="M377.579,436.158c36.355-96.245,29.816-168.684,11.03-226.114c1.742-1.295,3.37-2.68,4.889-4.118C408.49,264.211,413.033,343.492,377.579,436.158z"/><linearGradient id="SVGID_12_" gradientUnits="userSpaceOnUse" x1="36.657" y1="-50.9009" x2="22.8422" y2="-58.5948" gradientTransform="matrix(12.4074 0 0 12.4074 -170.9265 1034.6906)"><stop offset="0" stop-color="#D8D9DB"/><stop offset="0.9294" stop-color="#FFF"/><stop offset="1" stop-color="#FFF"/></linearGradient><path fill="url(#SVGID_12_)" d="M105.033,308.196c0.004,1.227,0.267,2.945,0.511,4.622l0,0c8.882,4.364,28.824,12.52,65.21,19.677l0,0c35.376,13.301,43.293,21.997,72.546,23.319l0,0c6.897,20.152,20.913,53.484,30.054,77.681l0,0l0.801-6.349c-10.725-28.979-19.911-61.584-24.411-79.229l0,0c-36.75-0.498-39.218-6.709-81.724-22.184l0,0c-26.372-4.08-46.971-10.146-62.981-17.543L105.033,308.196L105.033,308.196z"/><linearGradient id="SVGID_13_" gradientUnits="userSpaceOnUse" x1="45.7732" y1="-53.8354" x2="39.38" y2="-60.3336" gradientTransform="matrix(12.4074 0 0 12.4074 -170.9265 1034.6906)"><stop offset="0" stop-color="#999B9E"/><stop offset="0.6784" stop-color="#FFF"/><stop offset="1" stop-color="#FFF"/></linearGradient><path fill="url(#SVGID_13_)" d="M336.43,237.056c-0.59,0.332-1.177,0.684-1.775,1.033c29.747,48.458,51.26,105.134,34.911,173.542c16.349-68.408-0.435-127.771-30.192-176.238l0,0C338.401,235.932,337.406,236.491,336.43,237.056L336.43,237.056L336.43,237.056z"/><linearGradient id="SVGID_14_" gradientUnits="userSpaceOnUse" x1="39.6179" y1="-66.79" x2="30.2902" y2="-74.4251" gradientTransform="matrix(12.4074 0 0 12.4074 -170.9265 1034.6906)"><stop offset="0" stop-color="#9D9FA2"/><stop offset="1" stop-color="#F5F6F6"/></linearGradient><path fill="url(#SVGID_14_)" d="M199.948,117.308h-0.002v0.001c38.285,19.147,79.044,48.116,114.638,90.811l0,0c1.434-0.679,2.862-1.384,4.29-2.101l0,0c-27.015-34.431-59.436-61.875-87.405-81.44l0,0C220.054,122.014,208.52,119.681,199.948,117.308z"/><path fill="#D1D3D4" d="M332.232,507.497c0,0,96.574-84.875,108.472-195.825c0,0,1.139,6.572,1.203,17.611c-14.552,79.761-70.269,143.828-94.622,168.605C342.505,501.163,337.489,504.357,332.232,507.497z"/><linearGradient id="SVGID_15_" gradientUnits="userSpaceOnUse" x1="41.9241" y1="-75.1294" x2="48.7635" y2="-47.8894" gradientTransform="matrix(12.4074 0 0 12.4074 -170.9265 1034.6906)"><stop offset="0" stop-color="#D7DF23"/><stop offset="0.4902" stop-color="#77C043"/><stop offset="1" stop-color="#007236"/><stop offset="1" stop-color="#007236"/></linearGradient><path fill="url(#SVGID_15_)" d="M379.325,162.624c2.119-2.18,4.211-4.43,6.26-6.771l0,0c3.584-4.026,7.937-13.573,11.029-18.099l0,0c0.705-1.021,1.31-2.015,1.865-3.021l0,0c-10.443-8.202-27.151-19.871-53.142-34.904C345.385,99.888,363.213,122.505,379.325,162.624z M395.013,212.042c13.735,57.657,16.777,134.651-17.438,224.112l0,0c0,0,88.398-114.967,43.776-266.11l0,0C416.653,182.973,409.94,199.951,395.013,212.042L395.013,212.042L395.013,212.042z"/><linearGradient id="SVGID_16_" gradientUnits="userSpaceOnUse" x1="31.3425" y1="-75.3491" x2="48.5663" y2="-54.8155" gradientTransform="matrix(12.4074 0 0 12.4074 -170.9265 1034.6906)"><stop offset="0" stop-color="#FFF200"/><stop offset="0.3804" stop-color="#FFDD00"/><stop offset="0.749" stop-color="#F58220"/><stop offset="1" stop-color="#F58220"/></linearGradient><path fill="url(#SVGID_16_)" d="M308.382,108.147c12.559,20.493,31.965,55.904,40.238,80.415l0,0c5.095-3.541,10.182-7.366,15.158-11.517l0,0c-13.102-34.544-37.771-77.78-45.277-88.435L308.382,108.147L308.382,108.147z M318.874,206.019c5.09-2.521,10.221-5.279,15.338-8.282l0,0c-36.854-48.453-85.59-78.722-85.59-78.722l0,0c-16.273-4.679-32.452-9.214-46.104-12.995C234.485,124.632,281.757,158.732,318.874,206.019z M362.238,230.617c8.452,27.433,10.873,52.521,10.873,52.521l0,0c0,0-5.957-28.048-16.463-49.851l0,0c-5.615,2.674-10.633,5.024-14.383,6.906l0,0c27.93,47.57,43.118,105.276,27.3,171.438l0,0c22.787-73.582,19.818-138.035,8.109-188.814l0,0C372.524,225.566,367.24,228.192,362.238,230.617L362.238,230.617L362.238,230.617z"/><linearGradient id="SVGID_17_" gradientUnits="userSpaceOnUse" x1="24.22" y1="-72.0464" x2="47.4245" y2="-44.8071" gradientTransform="matrix(12.4074 0 0 12.4074 -170.9265 1034.6906)"><stop offset="0" stop-color="#FCAF17"/><stop offset="0.3882" stop-color="#ED1C24"/><stop offset="1" stop-color="#B02A30"/></linearGradient><path fill="url(#SVGID_17_)" d="M140.656,143.433v0.003c0.048,0.014,15.409,4.222,37.725,14.266l0,0c0.857-0.73,1.854-1.243,2.723-1.243l0,0c1.483,0,6.534,3.848,10.316,7.414l0,0c25.521,12.725,56.888,32.036,84.771,59.79l0,0c9.235-3.252,19.295-6.985,29.752-11.581l0,0c-27.975-34.789-68.472-68.76-125.99-99.377C149.448,120.877,140.701,143.314,140.656,143.433L140.656,143.433z M302.57,254.332c12.198,16.722,22.756,35.644,30.548,57.052l0,0c3.086,1.229,5.317,2.752,6.224,4.767l0,0c1.375,3.008-0.612,8.242-0.612,10.462l0,0c0,3.144,4.504,10.13,4.544,17.822l0,0c0,1.096-0.062,2.275-0.201,3.555l0,0c8.211,44.16,5.021,96.982-16.567,159.851l0,0c0,0,78.678-131.035,2.705-261.922l0,0C321.22,248.135,310.528,250.171,302.57,254.332L302.57,254.332L302.57,254.332z"/><linearGradient id="SVGID_18_" gradientUnits="userSpaceOnUse" x1="42.967" y1="-42.1465" x2="49.187" y2="-58.3501" gradientTransform="matrix(12.4074 0 0 12.4074 -170.9265 1034.6906)"><stop offset="0" stop-color="#040040"/><stop offset="0.7098" stop-color="#004B97"/><stop offset="0.8118" stop-color="#004B97"/><stop offset="1" stop-color="#004B97"/></linearGradient><path fill="url(#SVGID_18_)" d="M335.783,508.988c129.127-76.926,108.462-195.823,108.462-195.823l0,0C432.365,424.085,335.836,508.943,335.783,508.988z"/><path fill="#F99B1C" d="M342.269,240.195c-0.945-1.619-1.923-3.217-2.894-4.801c4.787-2.662,9.634-5.144,14.487-7.529l0.73,1.361c0.701,1.322,1.393,2.685,2.058,4.063C351.028,235.96,346.011,238.309,342.269,240.195L342.269,240.195z M362.241,230.614c-0.604-1.961-1.252-3.927-1.899-5.899c5.326-2.557,10.627-5.077,15.94-7.695c0.465,1.922,0.929,3.844,1.393,5.796C372.528,225.572,367.244,228.189,362.241,230.614L362.241,230.614z"/><linearGradient id="SVGID_19_" gradientUnits="userSpaceOnUse" x1="30.7131" y1="-75.23" x2="13.8642" y2="-62.3998" gradientTransform="matrix(12.4074 0 0 12.4074 -170.9265 1034.6906)"><stop offset="0" stop-color="#D7DF23"/><stop offset="0.5098" stop-color="#77C043"/><stop offset="0.8706" stop-color="#007236"/><stop offset="1" stop-color="#007236"/></linearGradient><path fill="url(#SVGID_19_)" d="M13.982,209.131c-6.483,49.833,19.391,79.961,62.133,95.021c-0.837-1.953-1.576-3.971-2.251-6.063l0,0c-9.135-5.414-17.058-11.963-23.316-19.807l0,0c-10.641-11.489-16.966-26.817-17.215-49.011l0,0c-0.665-59.087,46.077-136.6,169.953-167.301l0,0c-16.301-0.796-29.9-2.813-40.497-5.011l0,0C89.647,81.422,24.316,129.723,13.982,209.131L13.982,209.131L13.982,209.131z"/><linearGradient id="SVGID_20_" gradientUnits="userSpaceOnUse" x1="19.8289" y1="-70.8999" x2="44.5781" y2="-45.1895" gradientTransform="matrix(12.4074 0 0 12.4074 -170.9265 1034.6906)"><stop offset="0" stop-color="#FFF200"/><stop offset="0.3686" stop-color="#FFDD00"/><stop offset="1" stop-color="#F99D1C"/></linearGradient><path fill="url(#SVGID_20_)" d="M207.115,190.86c0,2.245-2.684,12.072-2.684,14.321l0,0c0,31.962-73.827,53.116-73.827,71.674l0,0c0,1.993,0.529,3.739,1.467,5.288l0,0c8.867,5.077,22.791,5.896,24.379,5.896l0,0c6.036,0,82.718-6.815,82.718-27.726l0,0c0-0.293-0.024-0.578-0.074-0.845l0,0c-3.221-1.33-6.561-2.275-6.561-4.521l0,0c0-0.367,0.024-0.723,0.088-1.068l0,0c-3.034-1.221-5.979-2.18-5.979-4.289l0,0c0-9.998,18.542-15.219,44.773-24.268l0,0c-23.173-20.899-47.902-36.372-69.224-47.442C203.487,182.163,207.115,184.233,207.115,190.86L207.115,190.86z M51.335,231.904c0.328,17.312,4.636,35.909,19.491,52.283l0,0c-0.434-3.471-0.656-7.091-0.656-10.901l0,0c0-0.895-0.896-5.141-0.896-6.701l0,0c0-20.145-11.354-28.325-17.88-39.17l0,0C51.335,228.936,51.296,230.434,51.335,231.904z M291.29,274.012c0,6.26-5.992,20.493-5.992,23.4l0,0c0,1.134,0.229,2.184,0.665,3.126l0,0c9.704,4.885,28.109,5.926,40.654,8.881l0,0c-6.812-17.539-16.488-34.457-26.67-49.129l0,0C294.787,263.48,291.29,267.806,291.29,274.012L291.29,274.012z M111.217,310.889c11.88,4.867,25.991,9.077,42.777,12.382l0,0c-3.055-1.991-5.971-4.601-8.815-7.458l0,0c-6.357-5.029-12.146-12.374-18.139-18.433l0,0c-2.949-2.328-6.014-4.083-9.257-4.905l0,0C115.591,295.376,112.216,305.217,111.217,310.889L111.217,310.889z M281.271,351.516c-2.237,0-18.327,1.795-20.576,1.795l0,0c-3.453,0-6.632-0.043-9.577-0.127l0,0c4.832,18.371,13.302,47.666,23.036,73.963l0,0l3.628-28.996c0-2.229,6.746-40.514,6.987-42.737l0,0c0.156-1.48,0.116-2.74-0.066-3.802l0,0c-0.704-0.096-1.374-0.116-1.961-0.116l0,0C282.147,351.495,281.625,351.516,281.271,351.516L281.271,351.516z M309.083,459.087c-2.942,7.246-5.896,14.887-8.912,22.655l0,0c8.124,12.746,16.903,22.402,26.108,26.578l0,0l0.224-0.504l0.135-0.41c16.889-49.344,19.852-92.172,16.358-129.666l0,0C332.21,410.52,310.987,454.264,309.083,459.087L309.083,459.087L309.083,459.087z"/><linearGradient id="SVGID_21_" gradientUnits="userSpaceOnUse" x1="21.4597" y1="-73.8853" x2="25.0879" y2="-63.9167" gradientTransform="matrix(12.4074 0 0 12.4074 -170.9265 1034.6906)"><stop offset="0" stop-color="#FFF7DB"/><stop offset="0.5294" stop-color="#FFDD00"/><stop offset="1" stop-color="#FFDD00"/></linearGradient><path fill="url(#SVGID_21_)" d="M59.098,195.258v0.003c8.961,2.076,39.96,19.346,43.017,24.936l0,0c3.717,2.692,6.132,4.934,6.132,6.143l0,0c0,9.278-10.173,8.206-16.493,13.278c25.55-2.984,84.359-51.26,85.459-73.525l0,0c-18.76-8.014-31.196-11.401-31.196-11.401l0,0c0,0,1.314-3.399,4.701-8.036l0,0c-6.372-2.211-10.063-3.217-10.063-3.217l0,0c0,0,2.484-6.435,9.464-13.675l0,0c-9.088-3.51-18.586-6.846-28.5-10.027l0,0C90.651,141.461,69.611,169.46,59.098,195.258L59.098,195.258z"/><linearGradient id="SVGID_22_" gradientUnits="userSpaceOnUse" x1="22.5823" y1="-72.4854" x2="41.8155" y2="-42.869" gradientTransform="matrix(12.4074 0 0 12.4074 -170.9265 1034.6906)"><stop offset="0" stop-color="#FDB813"/><stop offset="0.4" stop-color="#FDB813"/><stop offset="0.6588" stop-color="#E9841D"/><stop offset="1" stop-color="#E9841D"/></linearGradient><path fill="url(#SVGID_22_)" d="M146.015,154.688c0,0,12.438,3.388,31.196,11.401l0,0c0.078-1.667-0.157-3.198-0.767-4.538l0,0c-0.402-1.029,0.583-2.7,1.936-3.853l0,0c-11.416-5.135-20.997-8.75-27.664-11.048l0,0C147.329,151.289,146.015,154.688,146.015,154.688L146.015,154.688z M195.865,169.419c0,6.705,5.356,8.045,5.356,16.085l0,0c0,2.24-2.683,12.076-2.683,14.316l0,0c0,31.967-73.832,53.129-73.827,71.676l0,0c0,4.786,3.089,8.211,7.357,10.647l0,0c-0.938-1.549-1.467-3.295-1.467-5.288l0,0c0-18.558,73.827-39.712,73.827-71.674l0,0c0-2.249,2.684-12.076,2.684-14.321l0,0c0-6.627-3.628-8.697-4.924-12.979l0,0c21.32,11.069,46.051,26.543,69.224,47.442l0,0c1.563-0.543,3.164-1.085,4.774-1.664l0,0c-27.883-27.754-59.248-47.064-84.771-59.789l0,0C193.914,166.239,195.865,168.489,195.865,169.419L195.865,169.419z M102.351,220.982c0,10.488-13.039,7.748-18.773,15.641c2.377,3.082,3.686,3.138,5.809,3.138l0,0c0.753,0,1.545-0.056,2.367-0.144l0,0c6.32-5.073,16.493-4,16.493-13.279l0,0c0-1.209-2.415-3.449-6.132-6.143l0,0C102.272,220.499,102.351,220.761,102.351,220.982L102.351,220.982z M284.769,267.468c0,6.269-5.375,21.685-5.375,24.591l0,0c0,2.43,1.098,4.443,2.988,6.143l0,0c0.979,0.865,2.205,1.649,3.58,2.338l0,0c-0.438-0.942-0.665-1.992-0.665-3.126l0,0c0-2.907,5.992-17.142,5.992-23.4l0,0c0-6.206,3.497-10.53,8.657-13.722l0,0c10.182,14.672,19.858,31.59,26.67,49.129l0,0c2.424,0.563,4.618,1.198,6.5,1.942l0,0c-1.501-4.141-3.122-8.198-4.833-12.173l0,0c-0.39-0.901-0.787-1.812-1.194-2.723l0,0l-0.984-2.149l-0.45-0.992l-0.255-0.557l-0.101-0.237l-0.196-0.41l-0.153-0.319l-0.162-0.311l-0.192-0.407l-0.108-0.249l-0.181-0.368l-0.184-0.364l-0.172-0.341c-7.021-14.423-15.331-27.597-24.44-39.543l0,0C291.25,253.654,284.769,258.731,284.769,267.468L284.769,267.468z M232.532,254.949c0,2.246,3.34,3.191,6.561,4.521l0,0c-0.48-2.985-3.514-4.407-6.473-5.59l0,0C232.558,254.228,232.532,254.583,232.532,254.949L232.532,254.949z M105.033,308.192c1.991,0.923,4.049,1.816,6.184,2.696l0,0c0.999-5.673,4.374-15.514,6.566-18.414l0,0c3.243,0.822,6.308,2.577,9.257,4.905l0,0c-4.797-4.851-9.712-8.907-15.156-10.263l0,0C109.314,290.535,105.063,303.613,105.033,308.192z M153.994,323.271c4.482,0.895,9.145,1.711,14.024,2.465l0,0c-4.29-1.563-8.982-3.213-14.174-4.972l0,0c-3.032-1.017-5.904-2.768-8.667-4.951l0,0C148.024,318.671,150.94,321.279,153.994,323.271z M275.375,346.158c-2.224,0-18.331,1.796-20.563,1.796l0,0c-1.756,0-3.445-0.025-5.069-0.035l0,0c0.417,1.633,0.876,3.385,1.375,5.266l0,0c2.945,0.084,6.124,0.127,9.577,0.127l0,0c2.249,0,18.339-1.795,20.576-1.795l0,0c0.714,0,2.014-0.092,3.432,0.096l0,0c-0.928-5.032-5.38-5.469-7.976-5.469l0,0C276.18,346.143,275.716,346.158,275.375,346.158L275.375,346.158z M303.17,453.734c-2.569,6.396-5.17,13.113-7.827,19.929l0,0c1.585,2.803,3.191,5.508,4.828,8.079l0,0c3.017-7.77,5.97-15.409,8.912-22.655l0,0c1.903-4.822,23.127-48.566,33.913-81.347l0,0c3.492,37.494,0.529,80.322-16.358,129.666c6.59-19.215,11.435-37.469,14.767-54.813l0,0l0.361-1.869c7.192-38.514,6.907-72.584,1.306-102.717l0,0C340.134,376.723,305.778,447.23,303.17,453.734L303.17,453.734L303.17,453.734z"/><linearGradient id="SVGID_23_" gradientUnits="userSpaceOnUse" x1="30.4412" y1="-75.7202" x2="15.5755" y2="-64.6012" gradientTransform="matrix(12.4074 0 0 12.4074 -170.9265 1034.6906)"><stop offset="0" stop-color="#62A73B"/><stop offset="0.4902" stop-color="#006B2C"/><stop offset="0.8314" stop-color="#007236"/><stop offset="1" stop-color="#007236"/></linearGradient><path fill="url(#SVGID_23_)" d="M33.332,229.273c0.249,22.192,6.574,37.521,17.215,49.01l0,0c-9.118-11.424-14.688-25.602-15.258-43.102l0,0c-2.347-71.357,72.383-148.298,170.045-162.996l0,0c-0.705-3.354-1.393-6.794-2.049-10.213C79.409,92.675,32.667,170.187,33.332,229.273L33.332,229.273L33.332,229.273z"/><path fill="#49A842" d="M421.347,170.044c-4.696,12.93-11.41,29.907-26.333,41.998c-0.493-2.063-0.992-4.098-1.51-6.111c12.636-12.041,17.779-28.95,22.017-40.688c0.563-1.571,1.183-4.411,1.729-8.054C418.729,161.499,420.099,165.789,421.347,170.044L421.347,170.044z"/><path fill="#B02A30" d="M329.206,245.913c-7.992,2.215-18.677,4.254-26.635,8.417l-3.063-4.114c9.108-3.796,20.38-5.6,27.472-8.124L329.206,245.913L329.206,245.913z"/><path d="M360.348,224.716c9.984,29.628,12.761,58.415,12.761,58.415s-7.014-33.024-19.237-55.265c-7.673,3.782-15.311,7.766-22.813,12.384c-10.383,6.372-46.291,6.66-46.291,27.221c0,6.264-5.357,21.68-5.357,24.587c0,17.445,54.354,11.839,59.956,24.068c1.353,2.998-0.639,8.233-0.639,10.47c0,3.131,4.525,10.124,4.552,17.814c0,25.935-37.521,102.83-40.099,109.326c-10.514,26.043-21.372,57.283-34.771,80.148l-4.123-1.051c0.818-20.845,2.604-45.398,2.604-47.642l10.899-87.037c0-2.231,6.737-40.526,6.979-42.742c1.119-10.133-7.147-9.258-9.376-9.258c-2.237,0-18.346,1.785-20.571,1.785c-45.719,0-42.161-7.283-100.962-27.186c-15.652-5.248-26.788-29.83-41.963-33.634c-2.587,3.424-6.847,16.563-6.847,21.032c0,2.235,0.89,6.263,0.89,8.5c0,14.085,44.751,35.169,43.9,36.681c0.775,0.646,24.157,13.595,24.157,27.349c0,4.24-4.146,7.146-6.269,7.146c-2.902,0-4.474-2.571-4.474-4.026c0-2.228-0.889-1.334-0.889-3.57c0-26.049-92.198-29.938-92.198-106.945c0-0.893-0.889-5.144-0.889-6.702c0-28.283-22.354-32.972-22.362-54.551c0-3.799,4.25-16.987,10.732-16.987c6.592,0,44.707,21.125,44.707,25.938c0,10.497-13.039,7.743-18.773,15.641c2.368,3.089,3.682,3.129,5.804,3.129c25.83,0,96.013-58.313,87.064-78.205c-0.674-1.686,2.421-5.1,4.667-5.1c2.446,0,14.749,10.613,14.749,12.965c0,6.705,5.358,8.05,5.358,16.091c0,2.236-2.684,12.075-2.684,14.313c0,31.965-73.833,53.129-73.833,71.684c0,14.741,29.396,16.532,31.752,16.532c6.031,0,82.713-6.814,82.713-27.716c0-6.93-12.535-6.374-12.535-10.724c0-16.997,53.649-20.232,107.574-51.864c13.778-8.771,3.091-1.914,14.409-9.175c12.829-8.863,25.388-19.57,36.964-32.7c3.586-4.028,7.944-13.574,11.03-18.109c10.563-15.517,5.589-29.186,6.216-45.323c9.312,3.725,12.305,12.042,14.291,18.572c4.338,14.34,0.972,47.206-1.599,54.249c-5.374,14.863-12.186,38.023-33.868,49.093C374.364,218.053,367.667,221.179,360.348,224.716L360.348,224.716z"/><linearGradient id="SVGID_24_" gradientUnits="userSpaceOnUse" x1="41.2522" y1="-67.6489" x2="35.4486" y2="-75.2537" gradientTransform="matrix(12.4074 0 0 12.4074 -170.9265 1034.6906)"><stop offset="0" stop-color="#000"/><stop offset="0.2392" stop-color="#000"/><stop offset="1" stop-color="#4D4D4F"/></linearGradient><path fill="url(#SVGID_24_)" d="M295.356,127.679c0,0-28.219-3.326-46.733-8.663c0,0,48.734,30.269,85.599,78.713l0,0c13.766-8.762,3.085-1.908,14.404-9.165l0,0c-8.272-24.511-27.677-59.922-40.243-80.415L295.356,127.679z"/><radialGradient id="SVGID_25_" cx="36.2004" cy="-79.7671" r="2.9456" gradientTransform="matrix(12.4074 0 0 12.4074 -170.9265 1034.6906)" gradientUnits="userSpaceOnUse"><stop offset="0" stop-color="#FFF"/><stop offset="0.4902" stop-color="#FFF"/><stop offset="0.7098" stop-color="#BCBDC0"/><stop offset="1" stop-color="#BCBDC0"/></radialGradient><path fill="url(#SVGID_25_)" d="M224.995,69.515V69.7c0.052,21.904,17.81,39.619,39.722,39.619l0,0c21.942,0,39.727-17.766,39.727-39.712l0,0c0-21.938-17.783-39.735-39.727-39.735C242.805,29.872,225.047,47.619,224.995,69.515L224.995,69.515z"/><path d="M238.007,49.423l0.709-10.027c0.455-0.382,0.91-0.757,1.383-1.125c0.758-0.578,1.524-1.139,2.32-1.663c2.241-1.507,4.662-2.788,7.253-3.834c4.403-1.777,8.938-2.706,13.416-2.867c-1.353,1.27-2.246,2.328-2.854,3.135l1.204,3.519c0.885,0.604,2.236,1.545,3.729,2.685c1.726,1.53,6.793,6.035,7.834,7.63l11.499,1.33l6.895-4.632l2.704-2.407l-5.526,9.48c2.729,5.742,3.965,11.489,4.499,14.816l5.165,5.816l2.021,2.275l2.376,0.871l1.668-2.933l-1.466-5.262l-0.28-9.008c2.098,5.795,1.942,10.912,1.873,14.055l-0.009,0.62c-0.314,5.679-1.839,11.188-4.417,16.166c-0.381,0.73-0.791,1.457-1.216,2.166c-1.804,3.003-4.027,5.8-6.609,8.265l-0.814,0.753c-3.36,3.82-13.257,9.448-20.422,10.032c-2.833-0.381-10.654-2.153-13.264-2.92l-0.656-0.215l-11.009-1.349c-5.286-2.284-9.341-6.845-12.648-10.549l-1.021-8.261l-7.414-13.361l-0.073-2.67l-0.026-0.688l-0.005-0.596c1.532-3.79,4.977-7.261,7.205-9.252L238.007,49.423L238.007,49.423z M241.435,68.23l6.45-0.573l-5.439,4.854l-1.222,12.208l7.502,11.717l9.279,3.976c2.981-0.377,8.768-1.389,13.561-2.93l3.19-4.722l1.077,5.077l4.315,3.063l11.437-2.294l7.612-10.316l2.46-11.463l-1.3-3.038l-3.939-2.066l-4.229-2.235c-2.592,2.185-6.558,4.597-9.634,6.332l-4.71,10.223l-3.091,6.719l0.254-6.479l0.442-10.646l-10.979-11.004l-10.652,1.938l-5.937,1.086l3.944-1.808l12.667-5.787l4.71-11.31c-0.862-1.639-4.942-9.196-8.099-12.238l-5.523-0.942c-5.892,1.342-10.154,3.065-12.404,4.09l-7.423,20.463l-0.279,0.773C237.617,65.168,239.993,67.264,241.435,68.23L241.435,68.23z M256.215,102.832l-6.937-5.533l-1.677-1.348l-9.556-8.426c-1.527-0.229-2.876-0.631-4.032-1.052l7.817,13.22l14.86,4.858C256.513,104.025,256.343,103.448,256.215,102.832L256.215,102.832z M286.514,51.146c-6.176-1.838-14.505-1.688-14.505-1.688c-1.725,2.39-4.969,12.688-4.969,12.688s4.456-7.62,7.13-9.494C277.256,51.187,286.514,51.146,286.514,51.146z"/><linearGradient id="SVGID_26_" gradientUnits="userSpaceOnUse" x1="35.5398" y1="-74.4595" x2="34.7198" y2="-80.2944" gradientTransform="matrix(12.4074 0 0 12.4074 -170.9265 1034.6906)"><stop offset="0" stop-color="#ED1C24"/><stop offset="0.4" stop-color="#EE3224"/><stop offset="0.8118" stop-color="#FFDD00"/><stop offset="1" stop-color="#FFDD00"/></linearGradient><path fill="url(#SVGID_26_)" d="M224.821,68.632v0.032c1.534-3.785,7.209-9.251,7.209-9.251l0,0l5.975-9.991l0.713-10.024C230.129,46.734,225.093,57.426,224.821,68.632L224.821,68.632z M272.999,46.873l11.506,1.331l6.885-4.633l2.711-2.405l-13.362,1.74l-15.565-3.667C266.888,40.771,271.965,45.285,272.999,46.873L272.999,46.873z M262.909,51.456l-5.301,8.378l-7.279,5.855l-8.071-0.846l-6.495-4.718l-0.294,0.767c2.154,4.263,4.522,6.377,5.972,7.34l0,0l6.447-0.568l-5.438,4.854l-1.227,12.202l4.252-10.277l7.125-6.718l7.064,0.104l10.95,9.102l4.395,9.357l0.443-10.658L264.48,64.632l-16.594,3.032l16.61-7.595l4.705-11.307c-0.591-1.15-2.758-5.164-5.077-8.518l0,0L262.909,51.456L262.909,51.456z M288.576,50.65c2.705,5.707,3.962,11.494,4.49,14.813l0,0l5.17,5.815l2.022,2.277l2.376,0.874l1.667-2.938l-1.461-5.266l-0.984,4.569l-3.619,0.48l-2.368-7.624l-2.889-13.136l1.12-9.354L288.576,50.65L288.576,50.65z M282.559,75.818l-4.955,10.764l-2.846,6.176l1.077,5.077l4.315,3.063l11.441-2.289l7.606-10.315l2.455-11.465l-1.291-3.037l-3.939-2.065l3.061,4.514l-1.825,8.391l-5.927,7.205l-9.073,3.086l-4.7-8.672l13.813-13.058l4.651-1.466l-4.231-2.236C289.596,71.665,285.64,74.09,282.559,75.818L282.559,75.818z M227.74,84.551c1.449,3.568,3.349,6.812,5.625,9.7l0,0l-1.021-8.265l-7.415-13.358C225.232,76.615,226.155,80.642,227.74,84.551z M268.052,95.812l-10.041,4.599c2.974-0.379,8.761-1.394,13.552-2.93l0,0l3.195-4.724l0.253-6.469L268.052,95.812L268.052,95.812z M241.837,99.69l14.854,4.862c-0.172-0.521-0.348-1.111-0.474-1.729l0,0l-6.938-5.522l-1.683-1.35l-9.555-8.426c-1.515-0.235-2.871-0.631-4.031-1.059l0,0L241.837,99.69L241.837,99.69z M270.942,109.276l-0.72-0.113l-0.454-0.062l-0.517-0.097l-0.885-0.17l-0.696-0.138l-0.381-0.087l-0.402-0.064l-0.836-0.182l-0.421-0.095l-0.639-0.141l-0.358-0.07c-2.854-0.64-5.729-1.348-7.052-1.737l0,0l-0.569-0.188l-11.004-1.335C254.094,108.855,261.561,110.099,270.942,109.276L270.942,109.276L270.942,109.276z"/><path fill="#FFF" d="M233.016,62.371c-2.118,1.438-2.933,2.723-2.933,2.723c5.13,1.165,10.316,5.996,10.316,5.996S236.436,65.054,233.016,62.371z"/><path d="M588.906,656.229h0.434c3.842-0.113,6.932-3.215,7.027-7.063v-0.371c-0.099-3.9-3.304-7.058-7.247-7.058c-3.982,0-7.239,3.255-7.239,7.24C581.88,652.91,585.022,656.113,588.906,656.229z"/><path fill="#FFF" d="M583.49,648.979c0,2.92,2.307,5.162,5.629,5.162c3.361,0,5.65-2.242,5.65-5.162c0-2.867-2.289-5.146-5.65-5.146C585.797,643.833,583.49,646.111,583.49,648.979z"/><path d="M590.297,645.184c1.96,0.312,3.037,1.791,3.037,3.523c0,2.481-1.859,4.092-4.271,4.092c-2.443,0-4.272-1.518-4.272-4.057c0-1.777,1.041-3.203,3.016-3.484v1.602c-0.948,0.172-1.407,0.963-1.407,1.884c0,1.34,1.074,2.084,2.65,2.084c1.48,0,2.688-0.837,2.688-2.119c0-1.011-0.508-1.742-1.439-1.849v-1.676H590.297z"/><path d="M596.127,634.55h-2.341c-1.273-1.287-5.24-6.049-7.805-6.049c-1.283,0-1.896,1.137-1.896,2.289c0,1.178,0.525,2.307,1.124,3.227l-2.332,0.217c-0.64-1.254-1.003-2.721-1.003-4.155c0-2.67,1.349-4.388,4.105-4.388c2.959,0,5.694,2.984,7.936,5.273v-5.721h2.21L596.127,634.55L596.127,634.55z"/><path d="M589.167,616.578c-1.805,0-5.196,0-5.196,2.087c0,2.051,3.393,2.051,5.196,2.051c1.769,0,5.106,0.014,5.106-2.051C594.274,616.557,590.935,616.578,589.167,616.578z M589.167,623.525c-3.512,0-7.288-1.059-7.288-4.86c0-4.091,4.03-4.896,7.288-4.896c3.243,0,7.199,0.836,7.199,4.896C596.366,622.982,592.095,623.525,589.167,623.525z"/><path d="M589.167,605.417c-1.805,0-5.196,0-5.196,2.084c0,2.049,3.393,2.049,5.196,2.049c1.769,0,5.106,0.024,5.106-2.049C594.274,605.4,590.935,605.417,589.167,605.417z M589.167,612.367c-3.512,0-7.288-1.071-7.288-4.866c0-4.099,4.03-4.894,7.288-4.894c3.243,0,7.199,0.845,7.199,4.894C596.366,611.831,592.095,612.367,589.167,612.367z"/><path d="M584.209,592.078v5.394l2.985,0.053c-0.059-0.313-0.132-0.735-0.132-1.283c0-1.95,0.919-4.512,4.543-4.512c2.587,0,4.681,1.785,4.761,5.252v0.412v0.051c-0.025,1.021-0.199,2.17-0.401,3.021l-2.513-0.063c0.285-0.688,0.705-1.645,0.705-2.879c0-1.467-0.679-2.982-2.465-2.982c-1.809,0-2.42,1.607-2.42,3.205c0,0.867,0.118,1.691,0.381,2.515l-7.524-0.138v-8.045H584.209L584.209,592.078z"/><polygon points="582.128,583.55 582.128,575.759 584.329,575.759 584.329,580.734 587.779,580.734 587.779,575.999 589.985,575.999 589.985,580.734 596.13,580.734 596.13,583.55 "/><polygon points="582.128,570.934 596.13,570.934 596.13,573.749 582.128,573.749 "/><polygon points="582.128,567.931 582.128,560.145 584.329,560.145 584.329,565.122 587.779,565.122 587.779,560.393 589.985,560.393 589.985,565.122 596.13,565.122 596.13,567.931 "/><path d="M584.929,552.953v0.043l5.781,2.015v-4.088L584.929,552.953z M582.127,554.494v-3.163l14.001-5.494v3.112l-3.208,1.193v5.688l3.208,1.221v2.906L582.127,554.494z"/><polygon points="584.33,535.896 584.33,539.906 582.128,539.906 582.128,529.068 584.33,529.068 584.33,533.087 596.126,533.087 596.126,535.896 "/><polygon points="582.128,527.29 582.128,522.792 592.738,519.46 592.738,519.434 582.128,516.091 582.128,511.595 596.13,511.595 596.13,514.281 584.567,514.281 584.567,514.32 596.13,518.098 596.13,520.796 584.567,524.559 584.614,524.6 596.13,524.6 596.13,527.29 "/></svg>